<svg viewBox="0 0 100 100" xmlns="http://www.w3.org/2000/svg" xmlns:xlink="http://www.w3.org/1999/xlink" width="100" height="100">
<defs>



<g id="bg" fill="#ff9311" class="bg"><path d="M0,50a50,50 0 1,0 100,0a50,50 0 1,0 -100,0"/></g><g id="fg"><path opacity="0.1" d="M85.355,14.645l-70.711,70.71c19.526,19.526,51.185,19.526,70.711,0 C104.882,65.83,104.882,34.171,85.355,14.645z"/><path opacity="0.1" d="M50,0v100c27.614,0,50-22.386,50-50S77.614,0,50,0z"/></g> 
 <path fill="#002a4a" id="i-441" d="M25,37.34c6.07-7.98,16-21.33,16-23.34c0-0.82,0-1.371-6.42-1.609L40.87,1.5l-1.74-1l-6.82,11.82 c-2.18-0.051-4.899-0.07-8.31-0.07C7,12.25,7,12.871,7,14c0,2.01,9.931,15.359,16,23.34V46h-6v2h14v-2h-6V37.34z M33.43,14.379 c2.471,0.08,4.25,0.191,5.25,0.301C38.11,15.74,36.87,17.629,35.23,20h-5.04L33.43,14.379z M12.76,20 c-1.67-2.4-2.909-4.291-3.46-5.32c1.98-0.23,7.181-0.43,14.7-0.43c2.7,0,5.1,0.029,7.16,0.07L27.88,20H12.76z"/> 
</defs>
<use x="0" y="0" class="bg" xlink:href="#bg"/>
<use x="26" y="26" xlink:href="#i-441"/>
<use x="0" y="0" xlink:href="#fg"/>
</svg>