<?xml version="1.0" ?><svg xmlns="http://www.w3.org/2000/svg" id="Sprout" viewBox="0 0 64 64"><defs><style>
      .cls-1 {
        stroke-width: 0px;
      }
    </style></defs><path class="cls-1" d="M56,54c-.36,0-.71.03-1.06.09-.44-3.43-3.39-6.09-6.94-6.09-1.36,0-2.65.38-3.75,1.09-1.04-1.87-3.04-3.09-5.25-3.09v-4.58l7.1-7.1c1.39,1.09,3.09,1.68,4.89,1.68,2.13,0,4.14-.83,5.65-2.34,2.97-2.97,2.34-11.67,2.26-12.65-.04-.48-.43-.87-.91-.91-.98-.08-9.68-.71-12.65,2.26-1.51,1.51-2.34,3.52-2.34,5.65,0,1.8.59,3.5,1.68,4.89l-5.68,5.68v-16.27c0-1.87.73-3.62,2.05-4.95l1.76-1.76c1.2.91,2.65,1.4,4.18,1.4,1.87,0,3.62-.73,4.94-2.05,2.59-2.59,2.06-10.1,1.99-10.95-.04-.49-.43-.88-.92-.92-.85-.06-8.36-.6-10.95,1.99-1.32,1.32-2.05,3.07-2.05,4.94,0,1.53.49,2.98,1.4,4.18l-1.76,1.76c-1.7,1.7-2.64,3.96-2.64,6.36v5.27l-5.68-5.68c1.09-1.39,1.68-3.09,1.68-4.89,0-2.13-.83-4.14-2.34-5.65-2.97-2.97-11.67-2.34-12.65-2.26-.48.04-.87.43-.91.91-.08.98-.71,9.68,2.26,12.65,1.51,1.51,3.52,2.34,5.65,2.34,1.8,0,3.5-.59,4.89-1.68l7.1,7.1v15.93c-.51.18-1,.43-1.45.74-1.13-1.31-2.79-2.09-4.55-2.09-.39,0-.78.04-1.15.12-.18-1.28-.6-2.47-1.26-3.53l-4.08-6.55c-.29-.47-.91-.61-1.38-.32l-5.95,3.7-2.11-3.39c.94-.58,1.23-1.82.64-2.76l-4.23-6.78c-.58-.94-1.82-1.23-2.75-.64l-1.7,1.05c-.45.29-.77.73-.89,1.25-.12.52-.03,1.06.25,1.51l4.23,6.79c.38.61,1.03.94,1.7.94.36,0,.73-.1,1.06-.3l2.11,3.39-5.94,3.7c-.22.14-.38.37-.44.62-.06.26-.02.53.12.76l2.62,4.2c-1.98,1-3.42,2.92-3.77,5.24-3.32-.08-6.08,2.66-6.08,6,0,.55.45,1,1,1h58c.55,0,1-.45,1-1,0-3.31-2.69-6-6-6ZM4.13,59c.44-1.72,2.01-3,3.87-3,.29,0,.55.03.79.08.29.06.6-.06.84-.25.23-.19.37-.53.37-.83,0-2.27,1.51-4.18,3.58-4.8.01,0,.02,0,.03-.01.44-.12.91-.19,1.39-.19,1.33,0,2.57.51,3.5,1.45.2.19.47.31.75.29.28-.01.54-.14.72-.35.76-.88,1.86-1.39,3.03-1.39.91,0,1.76.3,2.47.86.28.21.64.27.97.15.33-.13.57-.41.63-.76.24-1.27,1.07-2.31,2.18-2.85.07-.03.13-.06.19-.09.48-.2,1.01-.31,1.56-.31,1.45,0,2.79.79,3.5,2.05.15.28.43.46.75.5.31.04.63-.07.85-.3.76-.81,1.79-1.25,2.9-1.25,1.81,0,3.4,1.22,3.86,2.96.1.34.36.61.71.71.34.09.71-.01.96-.26.92-.91,2.15-1.41,3.47-1.41,2.76,0,5,2.24,5,5,0,.09,0,.19-.01.28-.05.36.1.72.39.94.28.22.67.26,1,.12.51-.23,1.06-.34,1.62-.34,1.86,0,3.43,1.28,3.87,3H4.13Z"/></svg>